<svg id="Icon" xmlns="http://www.w3.org/2000/svg" viewBox="0 0 501 501"><defs><style>.cls-1{fill:#132240;stroke:#000;stroke-miterlimit:10;}.cls-2{fill:#4785ff;}</style></defs><rect id="Background" class="cls-1" x="0.5" y="0.5" width="500" height="500" rx="73.43"/><g id="Rocket"><path class="cls-2" d="M321.86,152.07a26.08,26.08,0,1,0,18.44,7.64A25.91,25.91,0,0,0,321.86,152.07ZM328,184.3a8.7,8.7,0,0,1-12.29,0,8.69,8.69,0,0,1,6.15-14.84A8.62,8.62,0,0,1,328,172,8.71,8.71,0,0,1,328,184.3Z" transform="translate(0.5 0.5)"/><path class="cls-2" d="M383.25,121.75l-1.39-3.61-3.6-1.38a111.83,111.83,0,0,0-40.3-7.49,108.92,108.92,0,0,0-77.58,32l-26,26-65.57,8.2-48.32,48.32,41,16.39-9.12,9.12,13.24,13.24-20.49,28.69L208.75,355l28.69-20.49,13.24,13.23,9.11-9.12,16.4,41,48.32-48.32,8.19-65.57,26-26C389.38,209,399,162.71,383.25,121.75ZM151.39,217.47,176.84,192l37.48-4.68-39.51,39.51Zm59.24,114.77-42.86-42.86L178,275l47,47ZM308,323.16l-25.45,25.46-9.37-23.42,39.5-39.51Zm38.46-95.83L250.67,323.1l-30.73-30.74,67.62-67.62-12.3-12.29-67.62,67.62L176.9,249.33l95.78-95.77A91.62,91.62,0,0,1,338,126.66a94.5,94.5,0,0,1,30.39,5C379.72,165.28,371.33,202.45,346.45,227.33Z" transform="translate(0.5 0.5)"/><rect class="cls-2" x="134.92" y="339" width="34.77" height="17.39" transform="translate(-200.75 210.04) rotate(-45)"/><rect class="cls-2" x="159.51" y="363.59" width="34.77" height="17.39" transform="translate(-210.93 234.63) rotate(-45)"/><rect class="cls-2" x="110.33" y="314.41" width="34.77" height="17.39" transform="translate(-190.56 185.45) rotate(-45)"/></g></svg>